<?xml version="1.0" encoding="utf-8"?>
<!-- Generator: Adobe Illustrator 23.0.0, SVG Export Plug-In . SVG Version: 6.00 Build 0)  -->
<svg version="1.1" id="Ebene_1" xmlns="http://www.w3.org/2000/svg" xmlns:xlink="http://www.w3.org/1999/xlink" x="0px" y="0px"
	 viewBox="0 0 22 21.46" style="enable-background:new 0 0 22 21.46;" xml:space="preserve">
<g>
	<defs>
		<path id="SVGID_1_" d="M11,0C4.92,0,0,4.92,0,11c0,4.87,3.15,8.98,7.52,10.44c0.55,0.1,0.76-0.23,0.76-0.52
			c0-0.26-0.01-1.13-0.01-2.05c-2.76,0.51-3.48-0.67-3.7-1.29c-0.12-0.32-0.66-1.29-1.13-1.55c-0.39-0.21-0.93-0.71-0.01-0.73
			c0.87-0.01,1.49,0.8,1.69,1.13c0.99,1.66,2.57,1.2,3.2,0.91c0.1-0.72,0.38-1.2,0.7-1.47c-2.45-0.27-5.01-1.22-5.01-5.43
			c0-1.2,0.43-2.19,1.13-2.96c-0.11-0.28-0.49-1.4,0.11-2.92c0,0,0.92-0.29,3.03,1.13c0.88-0.25,1.81-0.37,2.75-0.37
			s1.87,0.12,2.75,0.37c2.1-1.43,3.03-1.13,3.03-1.13c0.61,1.51,0.22,2.64,0.11,2.92c0.7,0.77,1.13,1.75,1.13,2.96
			c0,4.22-2.57,5.16-5.02,5.43c0.4,0.34,0.74,1,0.74,2.03c0,1.47-0.01,2.65-0.01,3.02c0,0.29,0.21,0.63,0.76,0.52
			C18.85,19.98,22,15.85,22,11C22,4.92,17.08,0,11,0z"/>
	</defs>
	<use xlink:href="#SVGID_1_"  style="overflow:visible;fill-rule:evenodd;clip-rule:evenodd;fill:#FFFFFF;"/>
	<clipPath id="SVGID_2_">
		<use xlink:href="#SVGID_1_"  style="overflow:visible;"/>
	</clipPath>
</g>
</svg>
